<svg width="24" height="24" viewBox="0 0 24 24" fill="none" xmlns="http://www.w3.org/2000/svg">
<path id="&#244;&#128;&#134;&#132;" d="M3.29813 20.7047C3.16196 20.576 3.07118 20.4246 3.02579 20.2505C2.98796 20.0763 2.99175 19.9022 3.03714 19.7281C3.08253 19.5539 3.16952 19.4025 3.29813 19.2738L10.5604 11.9943L3.29813 4.72618C3.16952 4.59748 3.08253 4.44606 3.03714 4.27192C2.99931 4.09779 2.99931 3.92366 3.03714 3.74953C3.08253 3.57539 3.16952 3.42397 3.29813 3.29527C3.42673 3.15899 3.57803 3.07192 3.75202 3.03407C3.92601 2.98864 4.10001 2.98864 4.274 3.03407C4.45556 3.07192 4.61064 3.15899 4.73924 3.29527L12.0015 10.5634L19.2639 3.29527C19.3925 3.15899 19.5438 3.07192 19.7177 3.03407C19.8917 2.98864 20.0657 2.98864 20.2397 3.03407C20.4137 3.07192 20.5688 3.15899 20.705 3.29527C20.8336 3.42397 20.9206 3.57539 20.966 3.74953C21.0113 3.92366 21.0113 4.09779 20.966 4.27192C20.9206 4.44606 20.8336 4.59748 20.705 4.72618L13.4427 11.9943L20.705 19.2738C20.8336 19.4025 20.9168 19.5539 20.9546 19.7281C21 19.9022 21 20.0763 20.9546 20.2505C20.9168 20.4246 20.8336 20.576 20.705 20.7047C20.5764 20.841 20.4213 20.9281 20.2397 20.9659C20.0657 21.0114 19.8917 21.0114 19.7177 20.9659C19.5438 20.9205 19.3925 20.8334 19.2639 20.7047L12.0015 13.4366L4.73924 20.7047C4.61064 20.8334 4.45934 20.9205 4.28535 20.9659C4.11135 21.0114 3.93736 21.0114 3.76337 20.9659C3.58937 20.9205 3.43429 20.8334 3.29813 20.7047Z" fill="currentColor"/>
</svg>
