<svg width="20" height="20" viewBox="0 0 20 20" fill="none" xmlns="http://www.w3.org/2000/svg">
<path d="M8.38281 16.7773C8.00781 16.7773 7.6875 16.6107 7.42188 16.2773L3.375 11.2148C3.27604 11.0951 3.20312 10.9779 3.15625 10.8633C3.11458 10.7487 3.09375 10.6315 3.09375 10.5117C3.09375 10.2409 3.18229 10.0169 3.35938 9.83984C3.54167 9.66276 3.77083 9.57422 4.04688 9.57422C4.36458 9.57422 4.63281 9.71745 4.85156 10.0039L8.35156 14.4961L15.1328 3.72266C15.2526 3.54036 15.375 3.41276 15.5 3.33984C15.625 3.26172 15.7865 3.22266 15.9844 3.22266C16.2552 3.22266 16.4766 3.30859 16.6484 3.48047C16.8203 3.64714 16.9062 3.86589 16.9062 4.13672C16.9062 4.24609 16.888 4.35807 16.8516 4.47266C16.8151 4.58203 16.7578 4.69922 16.6797 4.82422L9.33594 16.2695C9.10677 16.6081 8.78906 16.7773 8.38281 16.7773Z" fill="currentColor"/>
</svg>
