<svg width="24" height="24" viewBox="0 0 24 24" fill="none" xmlns="http://www.w3.org/2000/svg">
<path d="M11.9141 16.6406C11.6536 16.6406 11.4167 16.5365 11.2031 16.3281L5.25781 10.2422C5.16927 10.1589 5.10156 10.0651 5.05469 9.96094C5.01302 9.85156 4.99219 9.73438 4.99219 9.60938C4.99219 9.4375 5.03125 9.28125 5.10938 9.14062C5.19271 9 5.30208 8.89062 5.4375 8.8125C5.57292 8.72917 5.72656 8.6875 5.89844 8.6875C6.14844 8.6875 6.36719 8.78125 6.55469 8.96875L12.2969 14.8516H11.5391L17.2734 8.96875C17.4609 8.78125 17.6797 8.6875 17.9297 8.6875C18.1016 8.6875 18.2552 8.72917 18.3906 8.8125C18.526 8.89062 18.6328 9 18.7109 9.14062C18.7943 9.28125 18.8359 9.4375 18.8359 9.60938C18.8359 9.85417 18.7474 10.0651 18.5703 10.2422L12.625 16.3281C12.526 16.4323 12.4167 16.5104 12.2969 16.5625C12.1771 16.6146 12.0495 16.6406 11.9141 16.6406Z" fill="currentColor"/>
</svg>