<svg width="24" height="24" viewBox="0 0 24 24" fill="none" xmlns="http://www.w3.org/2000/svg">
<path d="M16.1 13.3008L14.65 11.8508C14.8 11.0674 14.575 10.3341 13.975 9.65078C13.375 8.96745 12.6 8.70078 11.65 8.85078L10.2 7.40078C10.4833 7.26745 10.7708 7.16745 11.0625 7.10078C11.3542 7.03411 11.6667 7.00078 12 7.00078C13.25 7.00078 14.3125 7.43828 15.1875 8.31328C16.0625 9.18828 16.5 10.2508 16.5 11.5008C16.5 11.8341 16.4667 12.1466 16.4 12.4383C16.3333 12.7299 16.2333 13.0174 16.1 13.3008ZM19.3 16.4508L17.85 15.0508C18.4833 14.5674 19.0458 14.0383 19.5375 13.4633C20.0292 12.8883 20.45 12.2341 20.8 11.5008C19.9667 9.81745 18.7708 8.47995 17.2125 7.48828C15.6542 6.49661 13.9167 6.00078 12 6.00078C11.5167 6.00078 11.0417 6.03411 10.575 6.10078C10.1083 6.16745 9.65 6.26745 9.2 6.40078L7.65 4.85078C8.33333 4.56745 9.03333 4.35495 9.75 4.21328C10.4667 4.07161 11.2167 4.00078 12 4.00078C14.5167 4.00078 16.7583 4.69661 18.725 6.08828C20.6917 7.47995 22.1167 9.28412 23 11.5008C22.6167 12.4841 22.1125 13.3966 21.4875 14.2383C20.8625 15.0799 20.1333 15.8174 19.3 16.4508ZM19.8 22.6008L15.6 18.4508C15.0167 18.6341 14.4292 18.7716 13.8375 18.8633C13.2458 18.9549 12.6333 19.0008 12 19.0008C9.48333 19.0008 7.24167 18.3049 5.275 16.9133C3.30833 15.5216 1.88333 13.7174 1 11.5008C1.35 10.6174 1.79167 9.79662 2.325 9.03828C2.85833 8.27995 3.46667 7.60078 4.15 7.00078L1.4 4.20078L2.8 2.80078L21.2 21.2008L19.8 22.6008ZM5.55 8.40078C5.06667 8.83412 4.625 9.30912 4.225 9.82578C3.825 10.3424 3.48333 10.9008 3.2 11.5008C4.03333 13.1841 5.22917 14.5216 6.7875 15.5133C8.34583 16.5049 10.0833 17.0008 12 17.0008C12.3333 17.0008 12.6583 16.9799 12.975 16.9383C13.2917 16.8966 13.6167 16.8508 13.95 16.8008L13.05 15.8508C12.8667 15.9008 12.6917 15.9383 12.525 15.9633C12.3583 15.9883 12.1833 16.0008 12 16.0008C10.75 16.0008 9.6875 15.5633 8.8125 14.6883C7.9375 13.8133 7.5 12.7508 7.5 11.5008C7.5 11.3174 7.5125 11.1424 7.5375 10.9758C7.5625 10.8091 7.6 10.6341 7.65 10.4508L5.55 8.40078Z" fill="currentColor"/>
</svg>
