<svg width="16" height="17" viewBox="0 0 16 17" fill="none" xmlns="http://www.w3.org/2000/svg">
<path d="M8.003 14.758c-.387 0-.686-.104-.897-.31-.21-.204-.312-.495-.304-.874v-.158a2.2 2.2 0 0 1 .023-.2l.264-3.175-2.426 1.705c-.344.262-.703.393-1.078.393a1.11 1.11 0 0 1-.832-.34 1.174 1.174 0 0 1-.328-.85c0-.273.068-.51.205-.709.14-.203.344-.36.61-.469L6.074 8.5 3.24 7.229a1.352 1.352 0 0 1-.61-.463 1.24 1.24 0 0 1-.204-.71c0-.343.11-.628.328-.855a1.11 1.11 0 0 1 .832-.34c.375 0 .734.131 1.078.393l2.426 1.71-.264-3.18a2.25 2.25 0 0 1-.023-.2v-.158c-.008-.38.094-.67.304-.873.211-.207.51-.31.897-.31s.684.103.89.31c.211.203.315.494.311.873 0 .043-.002.095-.006.158-.004.059-.01.125-.017.2l-.27 3.18 2.432-1.71c.34-.262.697-.393 1.072-.393.336 0 .613.114.832.34.219.227.328.512.328.856 0 .27-.07.505-.21.709a1.334 1.334 0 0 1-.598.463L9.925 8.5l2.842 1.271c.261.11.46.266.597.47a1.2 1.2 0 0 1 .211.708c0 .34-.11.623-.328.85a1.11 1.11 0 0 1-.832.34c-.375 0-.732-.131-1.072-.393L8.91 10.041l.27 3.176c.007.074.013.14.017.199a2.6 2.6 0 0 1 .006.158c.004.38-.1.67-.31.873-.207.207-.504.31-.891.31Z" fill="currentColor"/>
</svg>
