<svg width="20" height="20" viewBox="0 0 20 20" fill="none" xmlns="http://www.w3.org/2000/svg">
<g>
<path d="M11.5724 1C7.46873 1 4.1443 4.25585 4.1443 8.27107C4.14218 9.59385 4.51052 10.8919 5.20927 12.0241L1.60792 15.5494L1.62046 15.5617C1.23607 15.9218 1 16.4331 1 17.0109C0.999768 18.1272 1.90829 19.0002 3.04753 19C3.62946 18.9998 4.14987 18.7719 4.52126 18.401L4.53032 18.4099L8.2461 14.7723C9.27825 15.2796 10.4174 15.5433 11.5724 15.5421C15.6763 15.5421 19 12.2868 19 8.27107C19 4.25585 15.676 1 11.5724 1ZM11.6174 12.683C9.05248 12.683 6.97478 10.6485 6.97478 8.1386C6.97478 5.62918 9.05248 3.59418 11.6174 3.59418C14.1823 3.59418 16.2596 5.62895 16.2596 8.1386C16.2598 10.6485 14.1823 12.683 11.6174 12.683Z" fill="black"/>
</g>
</svg>
