<svg width="24" height="24" viewBox="0 0 24 24" fill="none" xmlns="http://www.w3.org/2000/svg">
  <path d="M8.18889 7.1758C8.30057 7.05482 8.43419 6.99628 8.58974 7.00018C8.7453 7.00018 8.87892 7.05872 8.9906 7.1758L12.006 10.1906C12.1177 10.3038 12.1735 10.4326 12.1735 10.577C12.1735 10.7331 12.1236 10.8599 12.0239 10.9575C11.9282 11.0511 11.8026 11.098 11.647 11.098C11.4994 11.098 11.3758 11.0472 11.2761 10.9458L10.0256 9.68716L9.06838 8.59832L9.12222 9.95059V17.473C9.12222 17.6252 9.07236 17.75 8.97265 17.8476C8.87293 17.9491 8.7453 17.9998 8.58974 17.9998C8.4302 17.9998 8.30057 17.9491 8.20085 17.8476C8.10114 17.75 8.05128 17.6252 8.05128 17.473V9.95059L8.11111 8.59832L7.14786 9.68716L5.90342 10.9458C5.79972 11.0472 5.67407 11.098 5.5265 11.098C5.37094 11.098 5.2433 11.0511 5.14359 10.9575C5.04786 10.8599 5 10.7331 5 10.577C5 10.4326 5.05584 10.3038 5.16752 10.1906L8.18889 7.1758ZM15.8171 17.83C15.7014 17.9471 15.5658 18.0037 15.4103 17.9998C15.2587 17.9998 15.1271 17.9432 15.0154 17.83L12 14.8035C11.8843 14.6943 11.8265 14.5655 11.8265 14.4172C11.8265 14.2611 11.8764 14.1362 11.9761 14.0425C12.0758 13.9489 12.2034 13.902 12.359 13.902C12.5026 13.902 12.6262 13.9508 12.7299 14.0484L13.9744 15.307L14.9376 16.4017L14.8778 15.0494V7.52704C14.8778 7.37484 14.9276 7.24995 15.0274 7.15239C15.1311 7.05092 15.2607 7.00018 15.4162 7.00018C15.5718 7.00018 15.6994 7.05092 15.7991 7.15239C15.8989 7.24995 15.9487 7.37484 15.9487 7.52704V15.0494L15.8949 16.4017L16.8581 15.307L18.1026 14.0484C18.2023 13.9508 18.3259 13.902 18.4735 13.902C18.6291 13.902 18.7547 13.9489 18.8504 14.0425C18.9501 14.1362 19 14.2611 19 14.4172C19 14.5655 18.9442 14.6943 18.8325 14.8035L15.8171 17.83Z" fill="currentColor"/>
</svg>
