<svg width="16" height="16" viewBox="0 0 16 16" fill="none" xmlns="http://www.w3.org/2000/svg">
<path fill-rule="evenodd" clip-rule="evenodd" d="M7.16187 9.32814H8.82812V4.32939H7.16187V9.32814ZM7.99511 12.3036C7.46953 12.3036 7.04297 11.878 7.04297 11.3514C7.04297 10.8249 7.46953 10.3993 7.99511 10.3993C8.52069 10.3993 8.94725 10.8249 8.94725 11.3514C8.94725 11.878 8.52069 12.3036 7.99511 12.3036ZM7.99508 1.83002C4.31433 1.83002 1.33008 4.81427 1.33008 8.49502C1.33008 12.1758 4.31433 15.16 7.99508 15.16C11.6758 15.16 14.6601 12.1758 14.6601 8.49502C14.6601 4.81427 11.6758 1.83002 7.99508 1.83002Z" fill="currentColor"/>
</svg>
