<svg width="16" height="16" viewBox="0 0 16 16" fill="none" xmlns="http://www.w3.org/2000/svg">
<path fill-rule="evenodd" clip-rule="evenodd" d="M8 0C12.416 0 16 3.584 16 8C16 12.416 12.416 16 8 16C3.584 16 0 12.416 0 8C0 3.584 3.584 0 8 0ZM6.84425 9.18186L10.5243 5.44774C10.8478 5.12217 11.3778 5.11679 11.708 5.43573C11.7119 5.43948 11.7602 5.4879 11.7602 5.4879C12.0799 5.80891 12.0799 6.32322 11.7602 6.64423L6.84425 11.6L4.23978 8.9783C3.92202 8.65924 3.91981 8.14874 4.23479 7.82702L4.26579 7.79535C4.58673 7.46755 5.11644 7.4583 5.44894 7.7747C5.45433 7.77983 6.84425 9.18186 6.84425 9.18186Z" fill="currentColor"/>
<mask style="mask-type:luminance" maskUnits="userSpaceOnUse" x="0" y="0" width="16" height="16">
<path fill-rule="evenodd" clip-rule="evenodd" d="M8 0C12.416 0 16 3.584 16 8C16 12.416 12.416 16 8 16C3.584 16 0 12.416 0 8C0 3.584 3.584 0 8 0ZM6.84425 9.18186L10.5243 5.44774C10.8478 5.12217 11.3778 5.11679 11.708 5.43573C11.7119 5.43948 11.7602 5.4879 11.7602 5.4879C12.0799 5.80891 12.0799 6.32322 11.7602 6.64423L6.84425 11.6L4.23978 8.9783C3.92202 8.65924 3.91981 8.14874 4.23479 7.82702L4.26579 7.79535C4.58673 7.46755 5.11644 7.4583 5.44894 7.7747C5.45433 7.77983 6.84425 9.18186 6.84425 9.18186Z" fill="white"/>
</mask>
</svg>
